# xmcd CD database file
#
# Track frame offsets:
#	150
#	15145
#	29997
#	46792
#	68640
#	81195
#	99835
#	117380
#	131105
#	144962
#	155612
#	169382
#	181450
#
# Disc length: 2616 seconds
#
# Revision: 0
# Processed by: cddbd v1.4PL0 Copyright (c) Steve Scherf et al.
# Submitted via: CDex 1.50Beta7
#
DISCID=a90a360d
DTITLE=Fapy Lafertin - Aurore
DYEAR=1900
DGENRE=Jazz
TTITLE0=J'attendrai
TTITLE1=Fleur de Lavende
TTITLE2=Melodie au Crepescule
TTITLE3=The man I love
TTITLE4=Insensiblement
TTITLE5=La Bikina
TTITLE6=Aurore
TTITLE7=Tea for two
TTITLE8=Badeinerie in b
TTITLE9=Maquina de costura
TTITLE10=What is this thing called love?
TTITLE11=Maria Elena
TTITLE12=Take the "A" train
EXTD=
EXTT0=
EXTT1=
EXTT2=
EXTT3=
EXTT4=
EXTT5=
EXTT6=
EXTT7=
EXTT8=
EXTT9=
EXTT10=
EXTT11=
EXTT12=
PLAYORDER=
